<?xml version="1.0" standalone="no"?>
<!DOCTYPE svg PUBLIC "-//W3C//DTD SVG 20010904//EN"
 "http://www.w3.org/TR/2001/REC-SVG-20010904/DTD/svg10.dtd">
<svg version="1.0" xmlns="http://www.w3.org/2000/svg"
 width="512.000000pt" height="512.000000pt" viewBox="0 0 512.000000 512.000000"
 preserveAspectRatio="xMidYMid meet">
<metadata>
Created by potrace 1.14, written by Peter Selinger 2001-2017
</metadata>
<g transform="translate(0.000000,512.000000) scale(0.100000,-0.100000)"
fill="#000000" stroke="none">
<path d="M0 2560 l0 -2560 2560 0 2560 0 0 2560 0 2560 -2560 0 -2560 0 0
-2560z m560 2320 l0 -160 -40 0 -40 0 0 -40 0 -40 -40 0 -40 0 0 -40 0 -40
-160 0 -160 0 0 240 0 240 240 0 240 0 0 -160z m3920 120 l0 -40 -40 0 -40 0
0 -160 0 -160 -1840 0 -1840 0 0 160 0 160 -40 0 -40 0 0 40 0 40 1920 0 1920
0 0 -40z m560 -120 l0 -160 -40 0 -40 0 0 -40 0 -40 -40 0 -40 0 0 -40 0 -40
-160 0 -160 0 0 80 0 80 -40 0 -40 0 0 80 0 80 40 0 40 0 0 80 0 80 240 0 240
0 0 -160z m-4880 -440 l0 -40 160 0 160 0 0 -1840 0 -1840 -160 0 -160 0 0
-40 0 -40 -40 0 -40 0 0 1920 0 1920 40 0 40 0 0 -40z m4480 0 l0 -40 120 0
120 0 0 -1840 0 -1840 -120 0 -120 0 0 -40 0 -40 -40 0 -40 0 0 1920 0 1920
40 0 40 0 0 -40z m-3440 -480 l0 -40 -120 0 -120 0 0 -120 0 -120 -120 0 -120
0 0 -120 0 -120 -40 0 -40 0 0 120 0 120 40 0 40 0 0 40 0 40 80 0 80 0 0 80
0 80 40 0 40 0 0 40 0 40 120 0 120 0 0 -40z m800 0 l0 -40 -280 0 -280 0 0
-120 0 -120 120 0 120 0 0 -120 0 -120 -40 0 -40 0 0 80 0 80 -40 0 -40 0 0
-920 0 -920 200 0 200 0 0 800 0 800 -80 0 -80 0 0 40 0 40 120 0 120 0 0
-880 0 -880 120 0 120 0 0 120 0 120 120 0 120 0 0 720 0 720 40 0 40 0 0 80
0 80 120 0 120 0 0 120 0 120 120 0 120 0 0 120 0 120 440 0 440 0 0 -40 0
-40 -400 0 -400 0 0 -120 0 -120 240 0 240 0 0 -120 0 -120 -40 0 -40 0 0 80
0 80 -160 0 -160 0 0 -160 0 -160 240 0 240 0 0 -40 0 -40 -280 0 -280 0 0
240 0 240 -120 0 -120 0 0 -120 0 -120 -120 0 -120 0 0 -120 0 -120 -40 0 -40
0 0 -360 0 -360 40 0 40 0 0 40 0 40 80 0 80 0 0 80 0 80 40 0 40 0 0 40 0 40
120 0 120 0 0 -40 0 -40 -120 0 -120 0 0 -120 0 -120 -120 0 -120 0 0 -400 0
-400 -40 0 -40 0 0 80 0 80 -120 0 -120 0 0 -120 0 -120 -120 0 -120 0 0 -120
0 -120 -520 0 -520 0 0 40 0 40 480 0 480 0 0 120 0 120 -280 0 -280 0 0 1000
0 1000 -40 0 -40 0 0 160 0 160 320 0 320 0 0 -40z m-720 -200 l0 -80 -40 0
-40 0 0 80 0 80 40 0 40 0 0 -80z m800 0 l0 -80 -40 0 -40 0 0 80 0 80 40 0
40 0 0 -80z m1920 0 l0 -80 -40 0 -40 0 0 80 0 80 40 0 40 0 0 -80z m-1680
-240 l0 -80 -40 0 -40 0 0 80 0 80 40 0 40 0 0 -80z m1920 -40 l0 -120 -280 0
-280 0 0 40 0 40 240 0 240 0 0 80 0 80 40 0 40 0 0 -120z m-3280 -1040 l0
-1000 -40 0 -40 0 0 960 0 960 -40 0 -40 0 0 40 0 40 80 0 80 0 0 -1000z
m1920 640 l0 -120 -40 0 -40 0 0 80 0 80 -40 0 -40 0 0 40 0 40 80 0 80 0 0
-120z m880 0 l0 -40 200 0 200 0 0 -40 0 -40 -240 0 -240 0 0 80 0 80 40 0 40
0 0 -40z m-640 -160 l0 -40 -80 0 -80 0 0 40 0 40 80 0 80 0 0 -40z m1120 -80
l0 -40 80 0 80 0 0 -40 0 -40 -120 0 -120 0 0 80 0 80 40 0 40 0 0 -40z m-320
-520 l0 -400 -160 0 -160 0 0 -120 0 -120 -240 0 -240 0 0 120 0 120 -120 0
-120 0 0 120 0 120 120 0 120 0 0 -40 0 -40 -80 0 -80 0 0 -40 0 -40 80 0 80
0 0 -40 0 -40 120 0 120 0 0 120 0 120 160 0 160 0 0 120 0 120 40 0 40 0 0
-160 0 -160 -160 0 -160 0 0 -120 0 -120 -120 0 -120 0 0 -40 0 -40 160 0 160
0 0 120 0 120 160 0 160 0 0 320 0 320 -200 0 -200 0 0 -40 0 -40 120 0 120 0
0 -40 0 -40 -160 0 -160 0 0 120 0 120 280 0 280 0 0 -400z m560 -80 l0 -400
-120 0 -120 0 0 -120 0 -120 -120 0 -120 0 0 -120 0 -120 -520 0 -520 0 0 40
0 40 480 0 480 0 0 120 0 120 120 0 120 0 0 120 0 120 120 0 120 0 0 360 0
360 40 0 40 0 0 -400z m-1600 -600 l0 -40 -80 0 -80 0 0 40 0 40 80 0 80 0 0
-40z m-2480 -1040 l0 -40 80 0 80 0 0 -80 0 -80 40 0 40 0 0 -40 0 -40 -40 0
-40 0 0 -40 0 -40 -40 0 -40 0 0 -40 0 -40 -40 0 -40 0 0 -40 0 -40 -160 0
-160 0 0 240 0 240 80 0 80 0 0 40 0 40 80 0 80 0 0 -40z m4480 0 l0 -40 80 0
80 0 0 -160 0 -160 -40 0 -40 0 0 -40 0 -40 -40 0 -40 0 0 -40 0 -40 -160 0
-160 0 0 80 0 80 -40 0 -40 0 0 80 0 80 40 0 40 0 0 80 0 80 80 0 80 0 0 40 0
40 80 0 80 0 0 -40z m-400 -80 l0 -40 -40 0 -40 0 0 -120 0 -120 -1840 0
-1840 0 0 120 0 120 -40 0 -40 0 0 40 0 40 1920 0 1920 0 0 -40z"/>
<path d="M240 4920 l0 -40 -40 0 -40 0 0 -80 0 -80 40 0 40 0 0 -40 0 -40 80
0 80 0 0 40 0 40 40 0 40 0 0 80 0 80 -40 0 -40 0 0 40 0 40 -80 0 -80 0 0
-40z m160 -120 l0 -80 -80 0 -80 0 0 80 0 80 80 0 80 0 0 -80z"/>
<path d="M4720 4920 l0 -40 -40 0 -40 0 0 -80 0 -80 40 0 40 0 0 -40 0 -40 80
0 80 0 0 40 0 40 40 0 40 0 0 80 0 80 -40 0 -40 0 0 40 0 40 -80 0 -80 0 0
-40z m160 -120 l0 -80 -80 0 -80 0 0 80 0 80 80 0 80 0 0 -80z"/>
<path d="M240 440 l0 -40 -40 0 -40 0 0 -80 0 -80 40 0 40 0 0 -40 0 -40 80 0
80 0 0 40 0 40 40 0 40 0 0 80 0 80 -40 0 -40 0 0 40 0 40 -80 0 -80 0 0 -40z
m160 -120 l0 -80 -80 0 -80 0 0 80 0 80 80 0 80 0 0 -80z"/>
<path d="M4720 440 l0 -40 -40 0 -40 0 0 -80 0 -80 40 0 40 0 0 -40 0 -40 80
0 80 0 0 40 0 40 40 0 40 0 0 80 0 80 -40 0 -40 0 0 40 0 40 -80 0 -80 0 0
-40z m160 -120 l0 -80 -80 0 -80 0 0 80 0 80 80 0 80 0 0 -80z"/>
</g>
</svg>
