<?xml version="1.0" standalone="no"?>
<!DOCTYPE svg PUBLIC "-//W3C//DTD SVG 20010904//EN"
 "http://www.w3.org/TR/2001/REC-SVG-20010904/DTD/svg10.dtd">
<svg version="1.0" xmlns="http://www.w3.org/2000/svg"
 width="512.000000pt" height="512.000000pt" viewBox="0 0 512.000000 512.000000"
 preserveAspectRatio="xMidYMid meet">
<metadata>
Created by potrace 1.14, written by Peter Selinger 2001-2017
</metadata>
<g transform="translate(0.000000,512.000000) scale(0.100000,-0.100000)"
fill="#000000" stroke="none">
<path d="M0 2560 l0 -2560 2560 0 2560 0 0 2560 0 2560 -2560 0 -2560 0 0
-2560z m560 2320 l0 -160 -40 0 -40 0 0 -40 0 -40 -40 0 -40 0 0 -40 0 -40
-160 0 -160 0 0 240 0 240 240 0 240 0 0 -160z m3920 120 l0 -40 -40 0 -40 0
0 -160 0 -160 -1840 0 -1840 0 0 160 0 160 -40 0 -40 0 0 40 0 40 1920 0 1920
0 0 -40z m560 -120 l0 -160 -40 0 -40 0 0 -40 0 -40 -40 0 -40 0 0 -40 0 -40
-160 0 -160 0 0 80 0 80 -40 0 -40 0 0 80 0 80 40 0 40 0 0 80 0 80 240 0 240
0 0 -160z m-4880 -440 l0 -40 160 0 160 0 0 -1840 0 -1840 -160 0 -160 0 0
-40 0 -40 -40 0 -40 0 0 1920 0 1920 40 0 40 0 0 -40z m4172 -17 c41 -32 92
-73 112 -90 l36 -32 -2 -933 c-3 -900 -4 -932 -21 -900 -21 38 -60 44 -78 11
-8 -15 -14 -18 -22 -10 -16 16 -47 13 -54 -5 -3 -9 2 -23 12 -32 16 -16 17
-16 10 6 -5 16 -2 22 10 22 9 0 18 -12 22 -31 6 -33 19 -28 25 10 3 25 32 50
44 38 4 -4 -1 -16 -11 -27 -10 -11 -15 -26 -11 -36 6 -16 18 -16 59 1 16 7 17
-16 17 -406 l-1 -414 -77 -63 c-111 -92 -296 -212 -430 -280 -145 -74 -341
-152 -382 -152 -16 0 -30 -4 -30 -8 0 -5 -19 -14 -42 -21 -24 -7 -51 -15 -60
-17 -15 -4 -18 1 -18 30 l0 36 -80 0 -80 0 0 400 0 400 160 0 160 0 0 560 0
560 -170 0 c-168 0 -170 0 -170 22 0 34 29 58 71 58 20 0 39 -5 41 -10 2 -7
15 -6 37 3 21 9 29 17 22 22 -7 4 -21 -1 -32 -11 -17 -16 -19 -16 -19 -1 0 13
-10 17 -47 17 -56 0 -93 -28 -93 -72 0 -28 -1 -28 -60 -28 l-60 0 0 -80 0 -80
160 0 160 0 0 -400 0 -400 -560 0 -560 0 0 400 0 400 -80 0 -80 0 0 -560 0
-560 480 0 480 0 0 -320 0 -320 -640 0 -640 0 0 160 0 160 560 0 560 0 0 80 0
80 -560 0 -560 0 0 720 0 720 640 0 640 0 0 80 0 80 -160 0 -160 0 0 160 0
160 -80 0 -80 0 0 -160 0 -160 -160 0 -160 0 0 80 0 80 -80 0 -80 0 0 80 0 80
-160 0 -160 0 0 80 0 80 320 0 320 0 0 80 0 80 -480 0 -480 0 0 -32 c-1 -36
-29 -82 -37 -60 -7 17 -38 15 -53 -4 -11 -12 -10 -18 3 -31 9 -9 20 -13 24 -9
4 4 1 11 -7 16 -18 11 -6 25 15 17 8 -4 15 -18 15 -32 0 -24 -2 -25 -60 -25
-33 0 -60 -4 -60 -10 0 -5 -8 -10 -19 -10 -10 0 -24 -7 -31 -16 -11 -12 -10
-18 3 -31 9 -9 20 -13 24 -9 4 4 1 11 -7 16 -18 11 -6 25 15 17 11 -5 15 -21
15 -62 l0 -55 -80 0 -80 0 0 -80 0 -80 80 0 c47 0 80 -4 80 -10 0 -5 -8 -10
-19 -10 -10 0 -24 -7 -31 -16 -11 -12 -10 -18 3 -31 9 -9 20 -13 24 -9 4 4 1
11 -7 16 -18 11 -6 25 15 17 11 -5 15 -21 15 -62 l0 -55 80 0 80 0 0 80 0 80
160 0 160 0 0 -80 0 -80 -80 0 -80 0 0 -708 c0 -499 -3 -711 -11 -719 -8 -8
-8 -17 0 -31 6 -11 11 -33 11 -47 0 -24 -1 -25 -16 -11 -17 18 -50 21 -59 6
-3 -5 1 -23 10 -40 11 -21 23 -30 40 -30 l25 0 0 -224 0 -225 -37 16 c-252
103 -567 322 -758 525 -84 89 -215 257 -215 276 0 19 20 14 40 -10 l17 -22 14
22 c18 29 54 29 64 0 l8 -23 4 23 c3 16 -3 32 -17 47 -12 13 -17 26 -12 29 14
8 72 -45 72 -66 0 -9 5 -20 10 -23 6 -4 10 5 10 20 0 17 11 37 30 55 17 15 30
33 30 39 0 19 -61 101 -76 101 -7 0 -19 -9 -26 -20 -15 -23 -36 -25 -73 -8
-23 10 -29 8 -60 -22 -41 -40 -44 -66 -10 -82 14 -6 25 -14 25 -19 0 -8 -68
-18 -75 -10 -3 2 -5 421 -5 930 0 864 1 928 18 952 9 14 23 24 31 21 9 -3 11
1 7 16 -5 16 -2 20 19 20 20 0 23 -3 14 -14 -6 -8 -9 -21 -5 -29 4 -13 11 -9
34 16 18 20 33 29 41 25 9 -6 7 -12 -8 -23 -37 -25 -22 -69 15 -45 15 9 12 68
-4 84 -10 10 -17 10 -32 0 -20 -12 -50 -7 -50 10 0 40 261 313 408 426 l94 72
1518 0 1518 0 74 -57z m308 17 l0 -40 120 0 120 0 0 -1840 0 -1840 -120 0
-120 0 0 -40 0 -40 -40 0 -40 0 0 1920 0 1920 40 0 40 0 0 -40z m-3120 -730
c0 -16 -4 -30 -10 -30 -11 0 -14 43 -3 53 11 12 13 8 13 -23z m-686 -1606 c4
-9 5 -19 2 -21 -7 -7 -46 17 -46 27 0 17 37 11 44 -6z m64 -1 c-4 -22 -22 -20
-26 1 -2 10 3 16 13 16 10 0 15 -7 13 -17z m-140 -20 c-4 -22 -22 -20 -26 1
-2 10 3 16 13 16 10 0 15 -7 13 -17z m-358 -1483 l0 -40 80 0 80 0 0 -80 0
-80 40 0 40 0 0 -40 0 -40 -40 0 -40 0 0 -40 0 -40 -40 0 -40 0 0 -40 0 -40
-40 0 -40 0 0 -40 0 -40 -160 0 -160 0 0 240 0 240 80 0 80 0 0 40 0 40 80 0
80 0 0 -40z m4480 0 l0 -40 80 0 80 0 0 -160 0 -160 -40 0 -40 0 0 -40 0 -40
-40 0 -40 0 0 -40 0 -40 -160 0 -160 0 0 80 0 80 -40 0 -40 0 0 80 0 80 40 0
40 0 0 80 0 80 80 0 80 0 0 40 0 40 80 0 80 0 0 -40z m-400 -80 l0 -40 -40 0
-40 0 0 -120 0 -120 -1840 0 -1840 0 0 120 0 120 -40 0 -40 0 0 40 0 40 1920
0 1920 0 0 -40z"/>
<path d="M240 4920 l0 -40 -40 0 -40 0 0 -80 0 -80 40 0 40 0 0 -40 0 -40 80
0 80 0 0 40 0 40 40 0 40 0 0 80 0 80 -40 0 -40 0 0 40 0 40 -80 0 -80 0 0
-40z m160 -120 l0 -80 -80 0 -80 0 0 80 0 80 80 0 80 0 0 -80z"/>
<path d="M4720 4920 l0 -40 -40 0 -40 0 0 -80 0 -80 40 0 40 0 0 -40 0 -40 80
0 80 0 0 40 0 40 40 0 40 0 0 80 0 80 -40 0 -40 0 0 40 0 40 -80 0 -80 0 0
-40z m160 -120 l0 -80 -80 0 -80 0 0 80 0 80 80 0 80 0 0 -80z"/>
<path d="M1637 4403 c-16 -16 -15 -18 5 -40 19 -21 20 -27 10 -44 -12 -18 -11
-20 5 -17 28 5 29 48 1 69 -21 16 -21 18 -5 24 10 4 28 0 42 -9 21 -14 25 -14
25 -2 0 16 -29 36 -52 36 -8 0 -21 -8 -31 -17z"/>
<path d="M1737 4382 c-40 -41 -50 -89 -22 -112 19 -16 34 -5 17 12 -21 21 -13
53 21 86 31 30 65 41 80 26 4 -4 -7 -22 -24 -41 -24 -28 -28 -38 -18 -49 9
-11 9 -18 1 -26 -17 -17 -15 -53 3 -68 21 -18 29 -6 13 19 -11 18 -10 24 14
47 18 18 32 25 44 20 13 -5 15 -9 6 -18 -14 -14 -16 -38 -4 -38 5 0 15 11 22
25 13 24 11 28 -18 55 -29 26 -31 32 -20 50 11 18 10 23 -6 36 -34 25 -69 17
-109 -24z"/>
<path d="M2789 4399 c-16 -16 -23 -18 -34 -9 -10 9 -19 9 -35 0 -25 -14 -23
-43 5 -49 16 -3 17 -1 7 11 -6 8 -9 18 -5 21 10 11 33 -13 33 -34 0 -11 5 -19
10 -19 6 0 10 11 10 24 0 26 36 60 52 50 5 -4 0 -16 -11 -28 -29 -30 -26 -46
7 -46 54 0 58 27 13 83 -18 22 -26 22 -52 -4z"/>
<path d="M3043 4396 c-36 -32 -24 -44 15 -16 20 15 37 20 49 16 17 -7 16 -9
-4 -26 -30 -24 -29 -30 5 -30 47 0 56 20 25 52 -33 34 -54 35 -90 4z"/>
<path d="M3586 4399 c-26 -20 -38 -79 -16 -79 6 0 10 11 10 24 0 29 34 56 71
56 34 0 43 -10 21 -26 -13 -10 -14 -15 -5 -25 15 -15 69 5 84 33 14 25 -19 38
-36 14 -12 -15 -13 -15 -18 4 -7 28 -74 28 -111 -1z"/>
<path d="M1480 4395 c0 -8 5 -15 10 -15 6 0 10 7 10 15 0 8 -4 15 -10 15 -5 0
-10 -7 -10 -15z"/>
<path d="M2120 4395 c0 -8 5 -15 10 -15 6 0 10 7 10 15 0 8 -4 15 -10 15 -5 0
-10 -7 -10 -15z"/>
<path d="M1520 4375 c0 -8 5 -15 10 -15 6 0 10 7 10 15 0 8 -4 15 -10 15 -5 0
-10 -7 -10 -15z"/>
<path d="M2160 4375 c0 -8 5 -15 10 -15 6 0 10 7 10 15 0 8 -4 15 -10 15 -5 0
-10 -7 -10 -15z"/>
<path d="M2934 4306 c-16 -13 -17 -18 -7 -35 8 -13 9 -22 3 -26 -17 -11 -11
-22 19 -35 46 -19 52 -9 21 37 -16 23 -26 44 -23 47 16 15 54 3 76 -24 28 -33
37 -37 37 -17 0 22 -54 67 -81 67 -14 0 -34 -6 -45 -14z"/>
<path d="M2595 4286 c-21 -15 -14 -46 11 -46 13 0 14 3 5 13 -6 8 -8 17 -4 20
10 11 33 -13 33 -34 0 -11 5 -19 10 -19 6 0 10 6 10 14 0 17 39 48 52 40 13
-8 9 -24 -6 -24 -13 0 -26 -20 -26 -41 0 -14 36 -11 49 5 9 10 9 16 1 21 -8 5
-8 11 -1 19 8 10 5 18 -9 31 -20 18 -21 18 -52 -5 -22 -16 -30 -19 -25 -7 3 9
-1 18 -9 21 -20 8 -17 8 -39 -8z"/>
<path d="M3625 4283 c-18 -10 -25 -18 -17 -21 18 -6 73 18 66 29 -7 12 -14 11
-49 -8z"/>
<path d="M1380 4275 c0 -8 5 -15 10 -15 6 0 10 7 10 15 0 8 -4 15 -10 15 -5 0
-10 -7 -10 -15z"/>
<path d="M2020 4275 c0 -8 5 -15 10 -15 6 0 10 7 10 15 0 8 -4 15 -10 15 -5 0
-10 -7 -10 -15z"/>
<path d="M3709 4278 c-1 -2 -2 -15 -3 -30 -2 -31 9 -35 37 -14 13 10 14 15 5
23 -19 14 -38 25 -39 21z"/>
<path d="M1340 4255 c0 -8 5 -15 10 -15 6 0 10 7 10 15 0 8 -4 15 -10 15 -5 0
-10 -7 -10 -15z"/>
<path d="M1420 4255 c0 -8 5 -15 10 -15 6 0 10 7 10 15 0 8 -4 15 -10 15 -5 0
-10 -7 -10 -15z"/>
<path d="M1980 4255 c0 -8 5 -15 10 -15 6 0 10 7 10 15 0 8 -4 15 -10 15 -5 0
-10 -7 -10 -15z"/>
<path d="M2060 4255 c0 -8 5 -15 10 -15 6 0 10 7 10 15 0 8 -4 15 -10 15 -5 0
-10 -7 -10 -15z"/>
<path d="M871 4078 c-16 -16 -25 -19 -28 -10 -7 18 -27 15 -47 -7 -15 -16 -15
-19 -1 -31 9 -7 19 -10 22 -6 4 4 1 11 -6 15 -9 6 -10 11 -2 15 16 10 31 -2
31 -24 0 -10 5 -22 10 -25 6 -3 10 2 10 13 0 17 38 62 53 62 14 0 7 -28 -8
-34 -8 -3 -15 -15 -15 -26 0 -22 33 -28 60 -10 12 7 11 14 -6 47 -24 46 -41
51 -73 21z"/>
<path d="M1193 4078 c-18 -18 -24 -19 -38 -8 -13 11 -19 10 -35 -5 -15 -14
-17 -21 -9 -32 6 -7 16 -13 21 -13 7 0 6 5 -1 13 -13 16 -5 28 15 20 8 -3 14
-16 14 -29 0 -13 5 -24 10 -24 6 0 10 8 10 18 0 23 45 68 54 53 4 -6 -3 -20
-14 -31 -34 -34 3 -57 44 -27 16 11 16 15 2 41 -13 26 -33 45 -46 46 -3 0 -15
-10 -27 -22z"/>
<path d="M2085 4070 c-20 -21 -24 -30 -13 -30 8 0 23 9 33 20 10 11 24 20 31
20 24 0 25 -21 2 -40 l-23 -19 27 -1 c62 0 75 25 32 59 -36 28 -55 26 -89 -9z"/>
<path d="M1970 3985 c-10 -12 -10 -18 0 -30 10 -12 10 -18 0 -30 -7 -9 -11
-17 -9 -19 13 -9 70 -28 75 -24 7 7 -36 78 -47 78 -5 0 -9 5 -9 10 0 6 15 10
33 10 33 0 67 -24 67 -48 0 -7 5 -12 10 -12 18 0 10 36 -13 58 -27 26 -88 30
-107 7z"/>
<path d="M1000 3965 c-13 -16 -7 -45 10 -45 7 0 9 8 5 19 -4 15 0 19 20 19 20
0 23 -3 14 -14 -6 -8 -9 -21 -5 -29 4 -13 12 -9 35 17 16 18 33 30 36 26 4 -4
0 -14 -9 -23 -17 -17 -22 -55 -8 -55 5 0 17 7 28 16 14 11 16 17 6 21 -10 4
-10 8 -1 19 10 12 9 18 -5 32 -14 14 -20 15 -36 4 -15 -9 -26 -10 -40 -2 -25
14 -35 13 -50 -5z"/>
<path d="M2480 3600 l0 -80 80 0 80 0 0 80 0 80 -80 0 -80 0 0 -80z"/>
<path d="M844 3129 c-3 -6 -1 -16 5 -22 8 -8 11 -5 11 11 0 24 -5 28 -16 11z"/>
<path d="M884 3109 c-3 -6 -1 -16 5 -22 8 -8 11 -5 11 11 0 24 -5 28 -16 11z"/>
<path d="M744 3009 c-3 -6 -1 -16 5 -22 8 -8 11 -5 11 11 0 24 -5 28 -16 11z"/>
<path d="M704 2989 c-3 -6 -1 -16 5 -22 8 -8 11 -5 11 11 0 24 -5 28 -16 11z"/>
<path d="M784 2989 c-3 -6 -1 -16 5 -22 8 -8 11 -5 11 11 0 24 -5 28 -16 11z"/>
<path d="M1344 2846 c-7 -17 45 -86 64 -86 19 0 15 10 -18 42 -36 34 -37 38
-8 38 24 0 78 -46 78 -67 0 -7 5 -13 10 -13 21 0 9 38 -23 68 -36 35 -93 44
-103 18z"/>
<path d="M1515 2750 c-19 -20 -39 -30 -57 -30 -33 0 -46 -23 -27 -46 8 -10 25
-14 48 -12 32 3 36 7 39 33 2 17 11 38 19 48 17 19 43 23 43 7 0 -5 -4 -10
-10 -10 -5 0 -10 -18 -10 -40 0 -22 5 -40 10 -40 6 0 10 15 10 33 0 18 5 38
11 44 17 17 3 43 -24 43 -13 0 -36 -13 -52 -30z m-40 -60 c-3 -5 -13 -10 -21
-10 -8 0 -14 5 -14 10 0 6 9 10 21 10 11 0 17 -4 14 -10z"/>
<path d="M2480 2480 l0 -240 80 0 80 0 0 240 0 240 -80 0 -80 0 0 -240z"/>
<path d="M2800 2480 l0 -240 80 0 80 0 0 240 0 240 -80 0 -80 0 0 -240z"/>
<path d="M3120 2480 l0 -240 80 0 80 0 0 240 0 240 -80 0 -80 0 0 -240z"/>
<path d="M1342 2657 c-22 -24 -30 -77 -12 -77 6 0 10 10 10 23 1 21 21 57 33
57 3 0 7 -17 9 -37 2 -30 8 -39 24 -41 24 -3 57 24 51 42 -2 6 -13 12 -25 14
-12 2 -27 12 -32 23 -14 25 -32 24 -58 -4z"/>
<path d="M4000 2475 c-13 -14 -20 -28 -16 -32 4 -5 16 2 26 15 10 12 28 22 39
22 24 0 28 -18 6 -26 -20 -8 -19 -34 1 -34 23 0 54 19 54 34 0 20 -34 46 -62
46 -13 0 -35 -11 -48 -25z"/>
<path d="M3890 2385 c-10 -12 -10 -18 0 -30 10 -12 10 -18 0 -30 -7 -9 -11
-17 -9 -19 13 -9 70 -28 75 -24 7 7 -36 78 -47 78 -5 0 -9 5 -9 10 0 6 15 10
33 10 33 0 67 -24 67 -48 0 -7 5 -12 10 -12 18 0 10 36 -13 58 -27 26 -88 30
-107 7z"/>
<path d="M4184 2365 c-4 -10 1 -24 11 -33 16 -16 17 -16 10 6 -3 12 -2 22 3
22 13 0 29 -21 34 -45 4 -18 6 -17 16 8 14 32 40 46 52 26 11 -17 24 -5 17 16
-8 20 -46 19 -69 -2 -15 -14 -19 -14 -16 -3 5 22 -50 26 -58 5z"/>
<path d="M4285 2319 c-10 -29 7 -42 30 -25 16 12 17 16 6 30 -18 22 -28 20
-36 -5z"/>
<path d="M3870 2165 c-11 -13 -9 -20 10 -40 19 -20 21 -27 10 -40 -17 -20 -5
-32 15 -15 21 17 19 47 -5 62 -11 7 -20 16 -20 20 0 12 48 10 55 -2 4 -6 11
-8 16 -4 17 10 -12 34 -41 34 -15 0 -33 -7 -40 -15z"/>
<path d="M3973 2145 c-37 -40 -45 -93 -18 -115 19 -16 34 -5 17 12 -35 35 15
118 71 118 33 0 33 -3 5 -36 -29 -32 -37 -134 -12 -155 14 -11 15 -9 9 24 -8
44 6 67 41 67 21 0 23 -3 17 -32 -7 -40 12 -28 22 14 6 21 2 30 -19 44 -22 14
-26 23 -24 53 3 35 2 36 -37 39 -35 2 -44 -2 -72 -33z"/>
<path d="M915 1999 c12 -39 27 -48 23 -15 -2 16 -9 31 -17 34 -10 3 -11 -2 -6
-19z"/>
<path d="M240 440 l0 -40 -40 0 -40 0 0 -80 0 -80 40 0 40 0 0 -40 0 -40 80 0
80 0 0 40 0 40 40 0 40 0 0 80 0 80 -40 0 -40 0 0 40 0 40 -80 0 -80 0 0 -40z
m160 -120 l0 -80 -80 0 -80 0 0 80 0 80 80 0 80 0 0 -80z"/>
<path d="M4720 440 l0 -40 -40 0 -40 0 0 -80 0 -80 40 0 40 0 0 -40 0 -40 80
0 80 0 0 40 0 40 40 0 40 0 0 80 0 80 -40 0 -40 0 0 40 0 40 -80 0 -80 0 0
-40z m160 -120 l0 -80 -80 0 -80 0 0 80 0 80 80 0 80 0 0 -80z"/>
</g>
</svg>
